<svg width="24" height="24" xmlns="http://www.w3.org/2000/svg" clip-rule="evenodd" viewBox="0 0 24 24"><title>briefcase plus</title><g stroke-linejoin="round" class="nc-icon-wrapper" fill="#ffffff" stroke-linecap="round" fill-rule="evenodd"><path d="M20.25,14.15L20.25,18.4C20.25,19.494 19.463,20.436 18.378,20.58C16.291,20.857 14.162,21 12,21C9.838,21 7.709,20.857 5.622,20.58C4.537,20.436 3.75,19.494 3.75,18.4L3.75,14.15M20.25,14.15C20.73,13.733 21.005,13.125 21,12.489L21,12M20.25,14.15C20.056,14.315 19.83,14.445 19.577,14.53C17.133,15.341 14.575,15.753 12,15.75C9.352,15.75 6.805,15.321 4.423,14.53C4.176,14.448 3.948,14.319 3.75,14.15M3.75,14.15C3.27,13.733 2.995,13.125 3,12.489L3,8.706C3,7.625 3.768,6.691 4.837,6.531C5.97,6.361 7.108,6.232 8.25,6.144M15.75,6.144L15.75,5.25C15.75,4.016 14.734,3 13.5,3L10.5,3C9.266,3 8.25,4.016 8.25,5.25L8.25,6.144M15.75,6.144C13.254,5.951 10.746,5.951 8.25,6.144M12,12.75L12.008,12.75L12.008,12.758L12,12.758L12,12.75Z" fill="none" fill-rule="nonzero" stroke="#ffffff" stroke-width="1.5"></path><path d="M12,9L12,15M15,12L9,12" fill="none" fill-rule="nonzero" stroke="#ffffff" stroke-width="1.5" transform="translate(6.54 -3.205)"></path></g></svg>