<svg width="24" height="24" xmlns="http://www.w3.org/2000/svg" clip-rule="evenodd" viewBox="0 0 24 24"><title>briefcase plus</title><g stroke-linejoin="round" class="nc-icon-wrapper" fill="#ffffff" stroke-linecap="round" fill-rule="evenodd"><path d="M12,9L12,15M15,12L9,12" fill="none" fill-rule="nonzero" stroke="#ffffff" stroke-width="1.5" transform="translate(6.54 -3.205)"></path><path d="M18.836,14.793C16.615,15.43 14.314,15.752 12,15.75C9.27,15.75 6.643,15.308 4.186,14.491C2.984,14.091 2.25,12.95 2.25,11.739L2.25,8.706C2.25,7.272 3.272,6.006 4.726,5.789C5.647,5.651 6.572,5.54 7.5,5.455L7.5,5.25C7.5,3.604 8.854,2.25 10.5,2.25L13.5,2.25C14.458,2.25 15.317,2.709 15.867,3.416C15.415,3.642 14.994,3.923 14.615,4.251C14.34,3.944 13.941,3.75 13.5,3.75L10.5,3.75C9.677,3.75 9,4.427 9,5.25L9,5.34C10.556,5.245 12.116,5.225 13.673,5.277C12.957,6.266 12.534,7.482 12.534,8.795C12.534,12.11 15.225,14.801 18.54,14.801C18.639,14.801 18.738,14.798 18.836,14.793ZM12,13.5C12.411,13.5 12.75,13.161 12.75,12.75C12.75,12.339 12.411,12 12,12C11.589,12 11.25,12.339 11.25,12.75C11.25,13.161 11.589,13.5 12,13.5ZM3,18.4L3,15.604C3.228,15.729 3.466,15.832 3.713,15.914C6.386,16.801 9.184,17.252 12,17.25C14.892,17.25 17.68,16.782 20.287,15.915C20.539,15.831 20.777,15.726 21,15.604L21,18.4C21,19.852 19.953,21.128 18.477,21.323C16.357,21.605 14.195,21.75 12,21.75C9.834,21.75 7.67,21.608 5.523,21.323C4.047,21.128 3,19.852 3,18.4Z" fill="#ffffff"></path></g></svg>