<?xml version="1.0" encoding="UTF-8" standalone="no"?>
<!DOCTYPE svg PUBLIC "-//W3C//DTD SVG 1.1//EN" "http://www.w3.org/Graphics/SVG/1.1/DTD/svg11.dtd">
<svg width="100%" height="100%" viewBox="0 0 24 24" version="1.1" xmlns="http://www.w3.org/2000/svg" xmlns:xlink="http://www.w3.org/1999/xlink" xml:space="preserve" xmlns:serif="http://www.serif.com/" style="fill-rule:evenodd;clip-rule:evenodd;stroke-linejoin:round;stroke-miterlimit:2;">
    <g>
        <path d="M19.5,11.8L19.5,20.625C19.5,21.246 18.996,21.75 18.375,21.75L5.625,21.75C5.004,21.75 4.5,21.246 4.5,20.625L4.5,3.375C4.5,2.754 5.004,2.25 5.625,2.25L8.469,2.25L10.138,2.25C10.685,2.25 11.181,2.541 11.592,2.95C12.289,3.646 12.75,4.697 12.75,5.625L12.75,7.125C12.75,8.154 13.596,9 14.625,9L16.125,9C17.051,9 18.095,9.464 18.784,10.164C19.192,10.577 19.479,11.077 19.479,11.625C19.479,11.685 19.487,11.744 19.5,11.8ZM13.108,2.413C17.287,2.994 18.906,5.124 19.357,8.672C18.426,7.947 17.215,7.5 16.125,7.5L14.625,7.5C14.419,7.5 14.25,7.331 14.25,7.125L14.25,5.625C14.25,4.547 13.815,3.345 13.108,2.413ZM11.25,13.5L9,13.5C8.586,13.5 8.25,13.836 8.25,14.25C8.25,14.664 8.586,15 9,15L11.25,15L11.25,17.25C11.25,17.664 11.586,18 12,18C12.414,18 12.75,17.664 12.75,17.25L12.75,15L15,15C15.414,15 15.75,14.664 15.75,14.25C15.75,13.836 15.414,13.5 15,13.5L12.75,13.5L12.75,11.25C12.75,10.836 12.414,10.5 12,10.5C11.586,10.5 11.25,10.836 11.25,11.25L11.25,13.5Z" style="fill:white;"/>
    </g>
</svg>
