<svg width="24" height="24" xmlns="http://www.w3.org/2000/svg" clip-rule="evenodd" stroke-miterlimit="2" viewBox="0 0 24 24"><title>folder plus</title><g stroke-linejoin="round" fill="#ffffff" class="nc-icon-wrapper" fill-rule="evenodd"><path d="M9.569,2.852C10.26,3.787 11.331,5.236 11.785,5.85C11.92,6.033 12.134,6.141 12.362,6.141L19.737,6.141C20.603,6.141 21.433,6.485 22.044,7.097C22.656,7.709 23,8.539 23,9.404L23,18.737C23,19.603 22.656,20.433 22.044,21.044C21.433,21.656 20.603,22 19.737,22L4.263,22C3.397,22 2.567,21.656 1.956,21.044C1.344,20.433 1,19.603 1,18.737L1,5.263C1,3.461 2.461,2 4.263,2L7.88,2C8.546,2 9.173,2.316 9.569,2.852ZM11.25,12.503L9,12.503C8.586,12.503 8.25,12.839 8.25,13.253C8.25,13.667 8.586,14.003 9,14.003L11.25,14.003L11.25,16.253C11.25,16.667 11.586,17.003 12,17.003C12.414,17.003 12.75,16.667 12.75,16.253L12.75,14.003L15,14.003C15.414,14.003 15.75,13.667 15.75,13.253C15.75,12.839 15.414,12.503 15,12.503L12.75,12.503L12.75,10.253C12.75,9.839 12.414,9.503 12,9.503C11.586,9.503 11.25,9.839 11.25,10.253L11.25,12.503Z" fill="#ffffff"></path></g></svg>