<svg width="24" height="24" xmlns="http://www.w3.org/2000/svg" clip-rule="evenodd" stroke-miterlimit="2" viewBox="0 0 24 24"><title>folder arrow in</title><g stroke-linejoin="round" fill="#ffffff" class="nc-icon-wrapper" fill-rule="evenodd"><path d="M1,14.617C1,14.278 1.275,14.003 1.614,14.003C3.671,14.003 10.313,14.003 12.492,14.003C12.61,14.003 12.716,14.074 12.76,14.182C12.805,14.29 12.781,14.415 12.698,14.498C11.984,15.212 10.751,16.445 10.751,16.445C10.459,16.737 10.459,17.211 10.751,17.503C11.043,17.795 11.517,17.795 11.809,17.503L15.499,13.813C15.653,13.675 15.75,13.475 15.75,13.253C15.75,13.03 15.652,12.829 15.497,12.691L11.809,9.004C11.517,8.712 11.043,8.712 10.751,9.004C10.459,9.295 10.459,9.77 10.751,10.062C10.751,10.062 11.984,11.294 12.697,12.008C12.78,12.091 12.805,12.216 12.76,12.324C12.715,12.432 12.61,12.503 12.492,12.503C10.313,12.503 3.671,12.503 1.614,12.503C1.451,12.503 1.295,12.438 1.18,12.323C1.065,12.208 1,12.052 1,11.889C1,10.141 1,5.263 1,5.263C1,3.461 2.461,2 4.263,2L7.88,2C8.546,2 9.173,2.316 9.569,2.852C10.26,3.787 11.331,5.236 11.785,5.85C11.92,6.033 12.134,6.141 12.362,6.141L19.737,6.141C20.603,6.141 21.433,6.485 22.044,7.097C22.656,7.709 23,8.539 23,9.404L23,18.737C23,19.603 22.656,20.433 22.044,21.044C21.433,21.656 20.603,22 19.737,22L4.263,22C3.397,22 2.567,21.656 1.956,21.044C1.344,20.433 1,19.603 1,18.737C1,18.737 1,15.898 1,14.617Z" fill="#ffffff"></path></g></svg>