<?xml version="1.0" encoding="UTF-8" standalone="no"?>
<!DOCTYPE svg PUBLIC "-//W3C//DTD SVG 1.1//EN" "http://www.w3.org/Graphics/SVG/1.1/DTD/svg11.dtd">
<svg width="100%" height="100%" viewBox="0 0 24 24" version="1.1" xmlns="http://www.w3.org/2000/svg" xmlns:xlink="http://www.w3.org/1999/xlink" xml:space="preserve" xmlns:serif="http://www.serif.com/" style="fill-rule:evenodd;clip-rule:evenodd;stroke-linejoin:round;stroke-miterlimit:2;">
    <g>
        <path d="M9.569,2.852C9.173,2.316 8.546,2 7.88,2L4.263,2C2.461,2 1,3.461 1,5.263L1,18.737C1,19.603 1.344,20.433 1.956,21.044C2.567,21.656 3.397,22 4.263,22L19.737,22C20.603,22 21.433,21.656 22.044,21.044C22.656,20.433 23,19.603 23,18.737L23,9.404C23,8.539 22.656,7.709 22.044,7.097C21.433,6.485 20.603,6.141 19.737,6.141L12.362,6.141C12.134,6.141 11.92,6.033 11.785,5.85C11.331,5.236 10.26,3.787 9.569,2.852Z" style="fill:white;"/>
    </g>
</svg>
