<?xml version="1.0" encoding="UTF-8" standalone="no"?>
<!DOCTYPE svg PUBLIC "-//W3C//DTD SVG 1.1//EN" "http://www.w3.org/Graphics/SVG/1.1/DTD/svg11.dtd">
<svg width="100%" height="100%" viewBox="0 0 24 24" version="1.1" xmlns="http://www.w3.org/2000/svg" xmlns:xlink="http://www.w3.org/1999/xlink" xml:space="preserve" xmlns:serif="http://www.serif.com/" style="fill-rule:evenodd;clip-rule:evenodd;stroke-linecap:round;stroke-linejoin:round;stroke-miterlimit:1.5;">
    <g>
        <g transform="matrix(0.909793,0,0,1.16743,1.3333,-3.64165)">
            <path d="M19.5,18.9L19.5,20.886C19.5,21.115 19.383,21.335 19.175,21.497C18.967,21.659 18.685,21.75 18.391,21.75L4.121,21.75C3.509,21.75 3.013,21.363 3.013,20.886C3.013,18.011 3.013,8.786 3.013,5.911C3.013,5.433 3.509,5.047 4.121,5.047C7.124,5.047 15.389,5.047 18.391,5.047C19.004,5.047 19.5,5.433 19.5,5.911C19.5,8.149 19.5,13.964 19.5,13.964" style="fill:none;stroke:white;stroke-width:1.43px;"/>
        </g>
        <g transform="matrix(0.830181,0,0,0.345026,5.73722,10.9189)">
            <path d="M18.295,5.047C18.961,5.047 19.5,6.344 19.5,7.945C19.5,11.003 19.5,15.794 19.5,18.852C19.5,20.452 18.961,21.75 18.295,21.75C15.249,21.75 7.264,21.75 4.217,21.75C3.552,21.75 3.013,20.452 3.013,18.852C3.013,15.794 3.013,11.003 3.013,7.945C3.013,6.344 3.552,5.047 4.217,5.047C7.264,5.047 15.249,5.047 18.295,5.047Z" style="fill:none;stroke:white;stroke-width:2.36px;"/>
        </g>
        <g transform="matrix(1.99664,0,0,1.99664,-13.0559,-16.1052)">
            <circle cx="12.371" cy="15.85" r="0.371" style="fill:white;"/>
        </g>
        <g transform="matrix(1.99664,0,0,1.99664,-9.61758,-16.1052)">
            <circle cx="12.371" cy="15.85" r="0.371" style="fill:white;"/>
        </g>
        <g transform="matrix(1.99664,0,0,1.99664,-6.17922,-16.1052)">
            <circle cx="12.371" cy="15.85" r="0.371" style="fill:white;"/>
        </g>
    </g>
</svg>
