<?xml version="1.0" encoding="UTF-8" standalone="no"?>
<!DOCTYPE svg PUBLIC "-//W3C//DTD SVG 1.1//EN" "http://www.w3.org/Graphics/SVG/1.1/DTD/svg11.dtd">
<svg width="100%" height="100%" viewBox="0 0 10 24" version="1.1" xmlns="http://www.w3.org/2000/svg" xmlns:xlink="http://www.w3.org/1999/xlink" xml:space="preserve" xmlns:serif="http://www.serif.com/" style="fill-rule:evenodd;clip-rule:evenodd;stroke-linecap:round;stroke-linejoin:round;">
    <g transform="matrix(1,0,0,1,-7,0)">
        <path d="M12,6.75C11.589,6.75 11.25,6.411 11.25,6C11.25,5.589 11.589,5.25 12,5.25C12.411,5.25 12.75,5.589 12.75,6C12.75,6.411 12.411,6.75 12,6.75ZM12,12.75C11.589,12.75 11.25,12.411 11.25,12C11.25,11.589 11.589,11.25 12,11.25C12.411,11.25 12.75,11.589 12.75,12C12.75,12.411 12.411,12.75 12,12.75ZM12,18.75C11.589,18.75 11.25,18.411 11.25,18C11.25,17.589 11.589,17.25 12,17.25C12.411,17.25 12.75,17.589 12.75,18C12.75,18.411 12.411,18.75 12,18.75Z" style="fill:none;fill-rule:nonzero;stroke:rgb(247,247,247);stroke-width:1.5px;"/>
    </g>
</svg>
