<?xml version="1.0" encoding="UTF-8" standalone="no"?>
<!DOCTYPE svg PUBLIC "-//W3C//DTD SVG 1.1//EN" "http://www.w3.org/Graphics/SVG/1.1/DTD/svg11.dtd">
<svg width="100%" height="100%" viewBox="0 0 24 24" version="1.1" xmlns="http://www.w3.org/2000/svg" xmlns:xlink="http://www.w3.org/1999/xlink" xml:space="preserve" xmlns:serif="http://www.serif.com/" style="fill-rule:evenodd;clip-rule:evenodd;stroke-linejoin:round;stroke-miterlimit:2;">
    <g transform="matrix(1,0,0,1,-2.81794,-0.347909)">
        <g>
            <g transform="matrix(17,0,0,17,11.6812,17.8898)">
                <path d="M0.138,-0.093C0.12,-0.093 0.105,-0.099 0.093,-0.112C0.08,-0.124 0.074,-0.139 0.074,-0.157C0.074,-0.174 0.08,-0.19 0.093,-0.202C0.105,-0.215 0.12,-0.221 0.138,-0.221C0.155,-0.221 0.17,-0.215 0.183,-0.202C0.195,-0.19 0.202,-0.174 0.202,-0.157C0.202,-0.145 0.199,-0.135 0.193,-0.125C0.187,-0.115 0.18,-0.108 0.17,-0.102C0.16,-0.096 0.15,-0.093 0.138,-0.093ZM0.138,-0.461C0.12,-0.461 0.105,-0.467 0.093,-0.48C0.08,-0.492 0.074,-0.507 0.074,-0.525C0.074,-0.542 0.08,-0.557 0.093,-0.57C0.105,-0.583 0.12,-0.589 0.138,-0.589C0.155,-0.589 0.17,-0.583 0.183,-0.57C0.195,-0.557 0.202,-0.542 0.202,-0.525C0.202,-0.513 0.199,-0.503 0.193,-0.493C0.187,-0.483 0.18,-0.475 0.17,-0.47C0.16,-0.464 0.15,-0.461 0.138,-0.461Z" style="fill:white;fill-rule:nonzero;"/>
            </g>
            <g transform="matrix(17,0,0,17,11.6812,17.8898)">
            </g>
            <g transform="matrix(17,0,0,17,26.788,17.8898)">
            </g>
            <text x="1.737px" y="17.89px" style="font-family:'Inter-Regular', 'Inter';font-size:17px;fill:white;">P<tspan x="15.516px 20.727px " y="17.89px 17.89px ">//</tspan></text>
        </g>
    </g>
</svg>
