<?xml version="1.0" encoding="UTF-8" standalone="no"?>
<!DOCTYPE svg PUBLIC "-//W3C//DTD SVG 1.1//EN" "http://www.w3.org/Graphics/SVG/1.1/DTD/svg11.dtd">
<svg width="100%" height="100%" viewBox="0 0 24 24" version="1.1" xmlns="http://www.w3.org/2000/svg" xmlns:xlink="http://www.w3.org/1999/xlink" xml:space="preserve" xmlns:serif="http://www.serif.com/" style="fill-rule:evenodd;clip-rule:evenodd;stroke-linecap:round;stroke-linejoin:round;">
    <g>
        <g>
            <path d="M14.121,5.249C13.851,4.978 14.482,5.235 14.154,5.25L19.431,5.251C21.54,5.251 23.25,6.961 23.25,9.07L23.25,18C23.25,20.057 21.557,21.75 19.5,21.75L4.5,21.75C2.443,21.75 0.75,20.057 0.75,18L0.75,6C0.75,3.943 2.443,2.25 4.5,2.25L9.879,2.25L10.468,2.308C10.66,2.347 10.848,2.404 11.028,2.479C11.208,2.554 11.381,2.646 11.544,2.755L12.001,3.129L14.121,5.249L13.547,6.635C13.367,6.561 13.201,6.451 13.061,6.31L10.94,4.19C10.659,3.908 10.277,3.75 9.879,3.75L4.5,3.75C3.266,3.75 2.25,4.766 2.25,6L2.25,18C2.25,19.234 3.266,20.25 4.5,20.25L19.5,20.25C20.734,20.25 21.75,19.234 21.75,18L21.75,9.07C21.75,7.79 20.712,6.751 19.431,6.751L14.121,6.75C13.922,6.75 13.728,6.71 13.547,6.635L14.122,5.25L14.121,5.249Z" style="fill:white;"/>
            <g transform="matrix(0.707107,-0.707107,0.707107,0.707107,1.83221,9.58091)">
                <path d="M12.127,12L4.532,12" style="fill:none;fill-rule:nonzero;stroke:white;stroke-width:1.5px;"/>
            </g>
            <g transform="matrix(0.80014,2.77556e-16,-2.77556e-16,0.80014,8.62534,2.15545)">
                <path d="M7.861,8.727L13.066,8.727C13.121,8.727 13.174,8.749 13.212,8.788C13.251,8.826 13.273,8.879 13.273,8.934C13.273,9.885 13.273,13.795 13.273,13.795" style="fill:none;stroke:white;stroke-width:1.87px;stroke-miterlimit:1.5;"/>
            </g>
        </g>
    </g>
</svg>
